<svg width="544" height="544" viewBox="0 0 544 544" fill="none" xmlns="http://www.w3.org/2000/svg">
<path d="M272 543.995C232.406 543.995 194.222 535.672 158.509 519.255C148.843 514.81 144.609 503.373 149.051 493.704C153.496 484.038 164.936 479.796 174.602 484.246C205.232 498.328 238.002 505.466 272 505.466C400.734 505.466 505.468 400.734 505.468 272C505.468 143.264 400.734 38.5294 272 38.5294C143.266 38.5294 38.5319 143.264 38.5319 272C38.5319 314.773 50.1991 356.601 72.2657 392.955C77.7896 402.053 74.891 413.901 65.7982 419.42C56.6957 424.947 44.8518 422.046 39.3328 412.953C13.6005 370.564 0 321.824 0 272C0 122.02 122.02 0 272 0C421.98 0 544 122.02 544 272C544 421.98 421.98 543.995 272 543.995Z" fill="black"/>
<path d="M263.058 299.76C221.749 299.76 188.259 266.271 188.259 224.961C188.259 183.652 221.749 150.162 263.058 150.162C304.368 150.162 337.857 183.652 337.857 224.961C337.857 266.271 304.368 299.76 263.058 299.76ZM353.238 156.802C365.397 156.802 375.257 146.944 375.257 134.783C375.257 122.623 365.397 112.765 353.238 112.765C341.075 112.765 331.218 122.623 331.218 134.783C331.218 135.229 331.324 135.645 331.349 136.085C312.423 121.519 288.788 112.765 263.058 112.765C201.093 112.765 150.86 162.996 150.86 224.961C150.86 286.927 201.093 337.16 263.058 337.16C325.024 337.16 375.257 286.927 375.257 224.961C375.257 199.232 366.5 175.597 351.934 156.671C352.375 156.695 352.791 156.802 353.238 156.802Z" fill="black"/>
<path d="M116.509 472.767C109.204 480.071 97.3578 480.071 90.0531 472.767C82.746 465.462 82.746 453.616 90.0531 446.311C97.3578 439.004 109.204 439.004 116.509 446.311C123.814 453.616 123.814 465.462 116.509 472.767Z" fill="#EE3E2C"/>
<path d="M319.82 355.195C319.82 345.074 328.025 336.869 338.146 336.869C348.267 336.869 356.472 345.074 356.472 355.195L356.557 360.041C356.557 401.351 323.067 434.84 281.758 434.84L230.274 432.873C220.368 432.873 212.337 424.843 212.337 414.937C212.337 405.034 220.368 397.003 230.274 397.003H278.707C301.429 397.003 319.852 378.583 319.852 355.858L319.82 355.195Z" fill="#EE3E2C"/>
</svg>
