<svg width="310" height="81" viewBox="0 0 310 81" fill="none" xmlns="http://www.w3.org/2000/svg">
<path d="M293.401 21.2957C283.749 20.7952 275.773 28.4486 275.773 37.9695V63.0046C275.773 64.5426 277.021 65.7876 278.563 65.7876C280.104 65.7876 281.352 64.5426 281.352 63.0046V50.3833C284.312 53.032 288.214 54.6555 292.508 54.6555C302.05 54.6555 309.72 46.697 309.219 37.0662C308.778 28.6439 301.854 21.7351 293.413 21.2957H293.401ZM293.952 48.9918C286.661 49.9072 280.52 43.7919 281.437 36.5047C282.061 31.549 286.074 27.5453 291.053 26.9106C298.343 25.9951 304.484 32.1105 303.567 39.3976C302.943 44.3534 298.931 48.357 293.952 48.9918Z" fill="white"/>
<path d="M253.461 21.2705C244.225 21.2705 236.727 28.7408 236.727 37.9687C236.727 47.1967 244.213 54.6669 253.461 54.6669C262.71 54.6669 270.196 47.1967 270.196 37.9687C270.196 28.7408 262.71 21.2705 253.461 21.2705ZM253.461 49.0886C247.296 49.0886 242.305 44.1085 242.305 37.9565C242.305 31.8045 247.296 26.8244 253.461 26.8244C259.627 26.8244 264.618 31.8045 264.618 37.9565C264.618 44.1085 259.627 49.0886 253.461 49.0886Z" fill="white"/>
<path d="M144.233 27.8131C146.044 27.8131 147.512 26.3483 147.512 24.5418C147.512 22.7353 146.044 21.2705 144.233 21.2705C142.423 21.2705 140.955 22.7353 140.955 24.5418C140.955 24.6028 140.967 24.6761 140.979 24.7371C138.153 22.5644 134.63 21.2705 130.801 21.2705C121.565 21.2705 114.066 28.7408 114.066 37.9687C114.066 47.1967 121.553 54.6669 130.801 54.6669C140.049 54.6669 147.536 47.1967 147.536 37.9687C147.536 34.1359 146.227 30.6205 144.062 27.8131C144.123 27.8131 144.184 27.8375 144.258 27.8375L144.233 27.8131ZM130.789 49.0886C124.624 49.0886 119.632 44.1085 119.632 37.9565C119.632 31.8045 124.624 26.8244 130.789 26.8244C136.954 26.8244 141.946 31.8045 141.946 37.9565C141.946 44.1085 136.954 49.0886 130.789 49.0886Z" fill="white"/>
<path d="M183.758 24.0531V38.9936C183.758 47.2938 177.287 54.3613 168.981 54.6542C160.258 54.9594 153.09 48.0018 153.09 39.3597V24.0531C153.09 22.5151 154.338 21.27 155.879 21.27C157.42 21.27 158.668 22.5151 158.668 24.0531V39.0302C158.668 44.3887 162.876 48.9905 168.247 49.0882C173.715 49.1858 178.192 44.7915 178.192 39.3475V24.0408C178.192 22.5029 179.44 21.2578 180.981 21.2578C182.523 21.2578 183.77 22.5029 183.77 24.0408L183.758 24.0531Z" fill="white"/>
<path d="M228.372 21.2705C229.913 21.2705 231.161 22.5155 231.161 24.0535V57.4378C231.161 61.0142 228.923 64.2855 225.497 65.3596C219.723 67.1662 214.426 62.9184 214.426 57.4378V36.8946C214.426 31.536 210.218 26.9342 204.848 26.8366C199.478 26.7389 194.902 31.1332 194.902 36.5772V51.8839C194.902 53.4219 193.655 54.6669 192.113 54.6669C190.572 54.6669 189.324 53.4219 189.324 51.8839V36.9434C189.324 28.6431 195.796 21.5757 204.102 21.2827C212.824 20.9776 219.992 27.9351 219.992 36.5772V57.4378C219.992 58.5241 220.592 59.5494 221.583 59.9645C223.613 60.8189 225.571 59.3541 225.571 57.4378V24.0535C225.571 22.5155 226.819 21.2705 228.36 21.2705H228.372Z" fill="white"/>
<path d="M228.371 15.7047C229.912 15.7047 231.16 14.4587 231.16 12.9217C231.16 11.3847 229.912 10.1387 228.371 10.1387C226.831 10.1387 225.582 11.3847 225.582 12.9217C225.582 14.4587 226.831 15.7047 228.371 15.7047Z" fill="#EE3E2C"/>
<path d="M139.241 57.3402C139.241 55.8388 140.464 54.6182 141.969 54.6182C143.474 54.6182 144.697 55.8388 144.697 57.3402V58.0603C144.709 64.2123 139.718 69.1925 133.553 69.1925L125.87 68.8995C124.39 68.8995 123.191 67.7033 123.191 66.2264C123.191 64.7494 124.39 63.5532 125.87 63.5532H133.088C136.476 63.5532 139.217 60.8068 139.217 57.4378V57.3402H139.241Z" fill="#EE3E2C"/>
<path d="M40.5612 80.9263C34.6563 80.9263 28.9656 79.6903 23.6382 77.2462C22.1946 76.5864 21.5612 74.8857 22.2318 73.4452C22.8931 72.0047 24.5975 71.3728 26.0411 72.0419C30.6048 74.1329 35.4945 75.2017 40.5612 75.2017C59.7567 75.2017 75.3665 59.6167 75.3665 40.4725C75.3665 21.3282 59.7567 5.73399 40.5612 5.73399C21.3656 5.73399 5.75587 21.3189 5.75587 40.4632C5.75587 46.8291 7.49753 53.0463 10.7853 58.4551C11.6049 59.8119 11.1764 61.5683 9.81664 62.3954C8.45684 63.2133 6.69655 62.7858 5.86763 61.4289C2.03039 55.1188 0 47.87 0 40.4632C0.0093137 18.1499 18.2083 0 40.5612 0C62.9141 0 81.113 18.1499 81.113 40.4632C81.113 62.7765 62.9234 80.9263 40.5612 80.9263Z" fill="white"/>
<path d="M52.6788 23.3257C54.495 23.3257 55.9572 21.8574 55.9572 20.0545C55.9572 18.2516 54.4857 16.7832 52.6788 16.7832C50.8719 16.7832 49.4004 18.2516 49.4004 20.0545C49.4004 20.1195 49.419 20.1846 49.419 20.2496C46.597 18.0843 43.0764 16.7832 39.2391 16.7832C29.9999 16.7832 22.5117 24.255 22.5117 33.474C22.5117 42.693 29.9999 50.1649 39.2391 50.1649C48.4783 50.1649 55.9665 42.693 55.9665 33.474C55.9665 29.6452 54.6626 26.1323 52.4925 23.3164C52.5577 23.3164 52.6229 23.335 52.6881 23.335L52.6788 23.3257ZM39.2298 44.5889C33.0735 44.5889 28.0813 39.6076 28.0813 33.4647C28.0813 27.3218 33.0735 22.3406 39.2298 22.3406C45.3862 22.3406 50.3783 27.3218 50.3783 33.4647C50.3783 39.6076 45.3862 44.5889 39.2298 44.5889Z" fill="white"/>
<path d="M15.4137 71.1404C16.9517 71.1404 18.1985 69.8963 18.1985 68.3617C18.1985 66.8271 16.9517 65.583 15.4137 65.583C13.8757 65.583 12.6289 66.8271 12.6289 68.3617C12.6289 69.8963 13.8757 71.1404 15.4137 71.1404Z" fill="#EE3E2C"/>
<path d="M47.6969 52.8421C47.6969 51.3366 48.917 50.1191 50.4258 50.1191C51.9346 50.1191 53.1547 51.3366 53.1547 52.8421V53.567C53.164 59.7099 48.1719 64.6911 42.0155 64.6911L34.341 64.403C32.8601 64.403 31.668 63.2042 31.668 61.7358C31.668 60.2675 32.8694 59.0686 34.341 59.0686H41.5591C44.9493 59.0686 47.6969 56.3271 47.6969 52.9443V52.8421Z" fill="#EE3E2C"/>
</svg>
